<svg width="363" height="272" viewBox="0 0 363 272" fill="none" xmlns="http://www.w3.org/2000/svg">
<g clip-path="url(#clip0_106_2)">
<rect width="363" height="272" rx="16" fill="#FAFAFA"/>
<path d="M84 73.5H392.5V308.5H72.5V85C72.5 78.6487 77.6487 73.5 84 73.5Z" fill="white"/>
<rect x="78" y="111" width="61" height="12" rx="4" fill="#F5F5F5"/>
<rect x="153.5" y="111.5" width="11" height="11" rx="3.5" stroke="#E5E5E5"/>
<rect x="78" y="96" width="22" height="7" rx="3.5" fill="#EFF6FF"/>
<rect x="75" y="131" width="94" height="1" fill="#E5E5E5"/>
<rect x="95" y="143" width="46" height="5" rx="2.5" fill="#EFF6FF"/>
<circle cx="87" cy="146" r="4" fill="#DBEAFE"/>
<rect x="95" y="159" width="46" height="5" rx="2.5" fill="#F5F5F5"/>
<circle cx="87" cy="162" r="4" fill="#E5E5E5"/>
<rect x="95" y="175" width="46" height="5" rx="2.5" fill="#F5F5F5"/>
<circle cx="87" cy="178" r="4" fill="#E5E5E5"/>
<rect x="95" y="191" width="46" height="5" rx="2.5" fill="#F5F5F5"/>
<circle cx="87" cy="194" r="4" fill="#E5E5E5"/>
<line x1="172.5" y1="73" x2="172.5" y2="275" stroke="#E5E5E5"/>
<rect x="222" y="138" width="74" height="8" rx="4" fill="#F5F5F5"/>
<rect x="222" y="156" width="117" height="5" rx="2.5" fill="#F5F5F5"/>
<rect x="222" y="167" width="124" height="5" rx="2.5" fill="#F5F5F5"/>
<rect x="222" y="178" width="113" height="5" rx="2.5" fill="#F5F5F5"/>
<rect x="222" y="193" width="117" height="5" rx="2.5" fill="#F5F5F5"/>
<rect x="222" y="204" width="124" height="5" rx="2.5" fill="#F5F5F5"/>
<rect x="222" y="215" width="113" height="5" rx="2.5" fill="#F5F5F5"/>
<path d="M84 73.5H392.5V308.5H72.5V85C72.5 78.6487 77.6487 73.5 84 73.5Z" stroke="#E5E5E5"/>
</g>
<rect x="0.5" y="0.5" width="362" height="271" rx="15.5" stroke="#E5E5E5"/>
<defs>
<clipPath id="clip0_106_2">
<rect width="363" height="272" rx="16" fill="white"/>
</clipPath>
</defs>
</svg>
