<svg width="170" height="30" viewBox="0 0 170 30" fill="none" xmlns="http://www.w3.org/2000/svg">
<rect x="4.52677" y="2.32504" width="3.57256" height="25.3501" rx="1.78628" fill="#171717"/>
<rect x="13.5314" y="2.325" width="3.57256" height="25.3501" rx="1.78628" fill="#171717"/>
<path d="M22.5362 17.5491C22.5362 16.5625 23.336 15.7628 24.3225 15.7628V15.7628C25.3091 15.7628 26.1088 16.5625 26.1088 17.5491V25.8888C26.1088 26.8753 25.3091 27.6751 24.3225 27.6751V27.6751C23.336 27.6751 22.5362 26.8753 22.5362 25.8888V17.5491Z" fill="#171717"/>
<path d="M22.5362 11.4584C22.5362 12.4449 23.336 13.2446 24.3225 13.2446V13.2446C25.3091 13.2446 26.1088 12.4449 26.1088 11.4584V4.11133C26.1088 3.12479 25.3091 2.32505 24.3225 2.32505V2.32505C23.336 2.32505 22.5362 3.12479 22.5362 4.11133V11.4584Z" fill="#171717"/>
<path d="M51.3075 21.1743V9.36648C51.3075 8.31489 50.4662 7.47361 49.4146 7.47361C48.3029 7.47361 47.4616 8.31489 47.4616 9.36648V9.5167C46.2899 8.04448 44.7275 7.29334 42.9849 7.29334C39.3193 7.29334 36.5852 9.93734 36.5852 14.6845C36.5852 19.5218 39.3494 22.0757 42.9849 22.0757C44.7576 22.0757 46.3199 21.2344 47.4616 19.7922V21.2645C47.4616 24.1188 45.2984 24.93 43.4656 24.93C42.1736 24.93 41.0319 24.6596 40.0104 24.0287C39.74 23.8784 39.4696 23.8183 39.1991 23.8183C38.3579 23.8183 37.6067 24.4793 37.6067 25.4107C37.6067 25.7112 37.6969 26.0117 37.8471 26.252C38.7184 27.6041 41.6929 28.0547 43.4656 28.0547C47.041 28.0547 51.3075 26.7027 51.3075 21.1743ZM47.4616 17.0281C46.8307 17.9595 45.4486 18.6806 44.1867 18.6806C42.0234 18.6806 40.5211 17.1783 40.5211 14.6845C40.5211 12.1907 42.0234 10.6885 44.1867 10.6885C45.4486 10.6885 46.8307 11.3795 47.4616 12.341V17.0281Z" fill="#171717"/>
<path d="M63.7151 9.09607C63.7151 8.22475 63.1442 7.53371 62.0325 7.53371C60.5903 7.53371 59.6289 8.67543 58.9078 9.63689V9.33643C58.9078 8.31489 58.0665 7.47361 57.045 7.47361C55.9333 7.47361 55.092 8.31489 55.092 9.33643V20.4532C55.092 21.5048 55.9333 22.3461 56.9849 22.3461H57.045C58.0665 22.3461 58.9078 21.5048 58.9078 20.4532V12.5813C59.5988 11.68 60.7105 11.1993 61.8823 11.049C62.9339 10.8988 63.7151 10.2378 63.7151 9.09607Z" fill="#171717"/>
<path d="M78.4479 20.4532V12.7917C78.4479 8.61534 75.4133 7.29334 72.1083 7.29334C70.4258 7.29334 67.1808 7.89425 66.2795 9.33643C66.1593 9.54675 66.0692 9.81716 66.0692 10.0876C66.0692 10.9889 66.8203 11.5598 67.5113 11.5598C67.7517 11.5598 67.9921 11.4697 68.2024 11.3495C69.1939 10.6885 70.3056 10.4181 71.4473 10.4181C73.3702 10.4181 74.6321 11.3795 74.6321 12.8518V14.8047C73.6707 13.663 71.9581 13.032 70.0352 13.032C67.7217 13.032 64.9875 14.324 64.9875 17.7191C64.9875 20.964 67.7217 22.5264 70.0352 22.5264C71.928 22.5264 73.6406 21.8353 74.6321 20.6636C74.6321 22.1057 75.9842 22.3461 76.2846 22.3461H76.5851C77.6066 22.3461 78.4479 21.5048 78.4479 20.4532ZM74.6321 18.6806C74.0012 19.5218 72.7993 19.9425 71.5675 19.9425C70.0652 19.9425 68.8333 19.1613 68.8333 17.8092C68.8333 16.3971 70.0652 15.6159 71.5675 15.6159C72.7993 15.6159 74.0012 16.0366 74.6321 16.8778V18.6806Z" fill="#171717"/>
<path d="M93.7401 17.8693C93.7401 12.0105 85.1471 13.8132 85.1471 11.6499C85.1471 10.8387 86.0484 10.2078 87.4305 10.2078C88.6023 10.2078 89.7741 10.5383 90.7055 11.0791C90.9158 11.1993 91.1862 11.2593 91.4266 11.2593C92.2078 11.2593 92.9289 10.6284 92.9289 9.81716C92.9289 9.54675 92.8387 9.27634 92.6885 9.06602C91.8773 7.89425 89.2934 7.29334 87.4005 7.29334C83.5847 7.29334 81.4515 9.42657 81.4515 11.8602C81.4515 17.5689 90.0745 15.6159 90.0745 18.0196C90.0745 18.9209 89.2934 19.5819 87.6409 19.5819C86.3789 19.5819 84.8767 19.0712 83.7349 18.4102C83.4946 18.2599 83.2242 18.1998 82.9538 18.1998C82.1425 18.1998 81.3614 18.8909 81.3614 19.7922C81.3614 20.0927 81.4515 20.3631 81.6318 20.6035C82.5331 21.8954 85.5677 22.5264 87.4606 22.5264C91.4867 22.5264 93.7401 20.5133 93.7401 17.8693Z" fill="#171717"/>
<path d="M111.273 14.8948C111.273 10.0575 108.569 7.29334 104.844 7.29334C103.071 7.29334 101.479 8.07452 100.367 9.48666V9.33643C100.367 8.31489 99.5257 7.47361 98.5042 7.47361C97.3925 7.47361 96.5512 8.31489 96.5512 9.33643V26.0117C96.5512 27.0332 97.3925 27.8745 98.4441 27.8745C99.5257 27.8745 100.367 27.0332 100.367 26.0117V20.303C101.539 21.8053 103.131 22.5264 104.844 22.5264C108.569 22.5264 111.273 19.7322 111.273 14.8948ZM107.307 14.8948C107.307 17.4187 105.835 19.1312 103.642 19.1312C102.41 19.1312 100.998 18.3801 100.367 17.4787V12.341C100.998 11.4096 102.41 10.6885 103.642 10.6885C105.835 10.6885 107.307 12.4011 107.307 14.8948Z" fill="#171717"/>
<path d="M126.597 20.4532V12.7917C126.597 8.61534 123.562 7.29334 120.257 7.29334C118.575 7.29334 115.33 7.89425 114.428 9.33643C114.308 9.54675 114.218 9.81716 114.218 10.0876C114.218 10.9889 114.969 11.5598 115.66 11.5598C115.901 11.5598 116.141 11.4697 116.351 11.3495C117.343 10.6885 118.455 10.4181 119.596 10.4181C121.519 10.4181 122.781 11.3795 122.781 12.8518V14.8047C121.82 13.663 120.107 13.032 118.184 13.032C115.871 13.032 113.137 14.324 113.137 17.7191C113.137 20.964 115.871 22.5264 118.184 22.5264C120.077 22.5264 121.79 21.8353 122.781 20.6636C122.781 22.1057 124.133 22.3461 124.434 22.3461H124.734C125.756 22.3461 126.597 21.5048 126.597 20.4532ZM122.781 18.6806C122.15 19.5218 120.948 19.9425 119.716 19.9425C118.214 19.9425 116.982 19.1613 116.982 17.8092C116.982 16.3971 118.214 15.6159 119.716 15.6159C120.948 15.6159 122.15 16.0366 122.781 16.8778V18.6806Z" fill="#171717"/>
<path d="M145.104 14.9249C145.104 10.1777 142.37 7.29334 138.674 7.29334C136.962 7.29334 135.339 8.04448 134.197 9.5167V3.80807C134.197 2.78652 133.356 1.94525 132.335 1.94525C131.223 1.94525 130.382 2.78652 130.382 3.80807V20.4532C130.382 21.5048 131.223 22.3461 132.275 22.3461C133.356 22.3461 134.197 21.5048 134.197 20.4532V20.303C135.339 21.7452 136.932 22.5264 138.674 22.5264C142.34 22.5264 145.104 19.7622 145.104 14.9249ZM141.168 14.9249C141.168 17.4487 139.696 19.1312 137.472 19.1312C136.241 19.1312 134.828 18.4402 134.197 17.5088V12.371C134.828 11.4096 136.241 10.6885 137.472 10.6885C139.696 10.6885 141.168 12.4011 141.168 14.9249Z" fill="#171717"/>
<path d="M151.802 20.4532V3.80807C151.802 2.78652 150.961 1.94525 149.939 1.94525C148.828 1.94525 147.986 2.78652 147.986 3.80807V20.4532C147.986 21.5048 148.828 22.3461 149.879 22.3461C150.961 22.3461 151.802 21.5048 151.802 20.4532Z" fill="#171717"/>
<path d="M169.377 14.3841C169.377 13.663 169.166 12.8518 168.956 12.1907C167.934 9.18621 165.441 7.29334 162.166 7.29334C157.749 7.29334 154.654 10.6885 154.654 14.8948C154.654 19.5519 157.989 22.5264 162.406 22.5264C164.329 22.5264 168.025 21.8353 168.025 20.1227C168.025 19.2214 167.213 18.5904 166.402 18.5904C166.162 18.5904 165.891 18.6505 165.651 18.7707C164.75 19.2514 163.638 19.4918 162.827 19.4918C160.363 19.4918 158.891 17.9595 158.65 16.1267H167.604C168.596 16.1267 169.377 15.3155 169.377 14.3841ZM165.741 13.5428H158.59C158.771 12.1006 159.792 10.3279 162.166 10.3279C164.69 10.3279 165.651 12.1607 165.741 13.5428Z" fill="#171717"/>
</svg>
